<svg xmlns="http://www.w3.org/2000/svg" xmlns:xlink="http://www.w3.org/1999/xlink" width="970" height="250" viewBox="0 0 970 250"><defs><clipPath id="b"><rect width="970" height="250"/></clipPath></defs><g id="a" clip-path="url(#b)"><rect width="970" height="250" fill="rgba(255,255,255,0)"/><rect width="190" height="250" transform="translate(780)" fill="#0b2d27"/><g transform="translate(803 175)"><g transform="translate(98.069 6.987)"><path d="M1933.089,214.651h.641v3.356h-.641a2.684,2.684,0,0,0-2.778-2.875c-1.91,0-3.393,1.431-3.393,4.291,0,2.887,1.483,4.317,3.3,4.317a2.726,2.726,0,0,0,2.845-2.967v-.668h-1.576v-.561h3.407v.561h-1.108v4.117h-.722v-1.537h-.04a2.93,2.93,0,0,1-2.738,1.7c-2.818,0-4.167-2.287-4.167-4.946s1.349-4.946,4.261-4.946a2.691,2.691,0,0,1,2.685,1.6h.027Z" transform="translate(-1925.462 -214.491)" fill="#fff"/><path d="M1995.166,240.777h1.068V235h-1.068v-.561h1.789v1.23h.027a1.855,1.855,0,0,1,1.8-1.417,1.315,1.315,0,0,1,.374.04v.642a1.122,1.122,0,0,0-.32-.04c-1.269,0-1.884,1.056-1.884,2.513v3.368h1.309v.561h-3.1Z" transform="translate(-1985.27 -231.607)" fill="#fff"/><path d="M2030.91,238.023c.027,1.791.828,2.941,2.231,2.941a1.844,1.844,0,0,0,2.017-1.685h.641a2.484,2.484,0,0,1-2.657,2.246c-2.017,0-2.952-1.523-2.952-3.636s.935-3.636,2.952-3.636,2.792,1.831,2.792,3.769Zm4.3-.561c-.039-1.644-.788-2.647-2.163-2.647-1.216,0-2,1.082-2.137,2.647Z" transform="translate(-2015.606 -231.607)" fill="#fff"/><path d="M2080.322,236.43a2.168,2.168,0,0,1,2.391-2.179c1.87,0,2.4,1.016,2.4,2.313v4.21h.921v.562h-1.563v-1.4h-.027a2.139,2.139,0,0,1-2.271,1.59,1.933,1.933,0,0,1-2.1-2.059c0-1.43.855-2.245,2.858-2.245h1.456v-.509c0-1.35-.655-1.9-1.656-1.9a1.587,1.587,0,0,0-1.7,1.617Zm4.074,1.39c-.455-.013-.869-.039-1.269-.039-1.657,0-2.324.575-2.324,1.724a1.411,1.411,0,0,0,1.536,1.457c1.456,0,2.057-1.377,2.057-2.74Z" transform="translate(-2058.822 -231.605)" fill="#fff"/><path d="M2128.21,222.943l.721-.267v1.738h1.857v.561h-1.857V229.8c0,.841.334,1.135.682,1.135.548,0,.828-.468.828-1.323v-.147H2131v.254c0,1.056-.534,1.778-1.456,1.778s-1.336-.535-1.336-1.538v-4.985h-1.229v-.561h1.229Z" transform="translate(-2099.444 -221.58)" fill="#fff"/><path d="M1924.016,325.047,1922,316.038h-.775v-.561h2.992v.561h-1.5l1.789,8.207h.027l2.191-8.769h1.069l2.19,8.769h.027l1.79-8.207h-1.416v-.561h2.912v.561h-.774l-2.016,9.009h-1l-2.231-8.849h-.027l-2.23,8.849Z" transform="translate(-1921.224 -301.951)" fill="#fff"/><path d="M2012.363,337.809c.026,1.791.828,2.941,2.23,2.941a1.844,1.844,0,0,0,2.017-1.684h.641a2.484,2.484,0,0,1-2.658,2.246c-2.017,0-2.952-1.524-2.952-3.636s.935-3.636,2.952-3.636,2.792,1.831,2.792,3.769Zm4.3-.561c-.04-1.644-.788-2.647-2.163-2.647-1.216,0-2,1.082-2.137,2.647Z" transform="translate(-1999.54 -318.029)" fill="#fff"/><path d="M2061.936,338.7h.561c.053,1.377.815,2.045,1.843,2.045s1.683-.549,1.683-1.5c0-.828-.374-1.109-1.482-1.283l-.868-.134c-1.069-.188-1.67-.682-1.67-1.644a2.1,2.1,0,0,1,2.218-2.153,1.826,1.826,0,0,1,1.829,1h.027v-.816h.561v2.366h-.561v-.374a1.58,1.58,0,0,0-1.749-1.617,1.461,1.461,0,0,0-1.6,1.5c0,.722.534,1,1.215,1.11l1,.16c1.269.2,1.8.775,1.8,1.817,0,1.417-.921,2.126-2.377,2.126a1.792,1.792,0,0,1-1.857-1.11h-.013v.923h-.561Z" transform="translate(-2043.104 -318.026)" fill="#fff"/><path d="M2104.075,322.729l.721-.267V324.2h1.857v.562H2104.8v4.826c0,.841.334,1.136.682,1.136.548,0,.828-.468.828-1.324v-.147h.561v.254c0,1.056-.534,1.778-1.456,1.778s-1.336-.535-1.336-1.538v-4.985h-1.229V324.2h1.229Z" transform="translate(-2078.54 -308.001)" fill="#fff"/><path d="M2139.786,337.809c.027,1.791.828,2.941,2.23,2.941a1.844,1.844,0,0,0,2.017-1.684h.641a2.484,2.484,0,0,1-2.658,2.246c-2.016,0-2.952-1.524-2.952-3.636s.936-3.636,2.952-3.636,2.792,1.831,2.792,3.769Zm4.3-.561c-.04-1.644-.788-2.647-2.163-2.647-1.216,0-2,1.082-2.137,2.647Z" transform="translate(-2109.91 -318.029)" fill="#fff"/><path d="M2187.163,340.562h1.068v-5.775h-1.068v-.561h1.79v1.23h.027a1.855,1.855,0,0,1,1.8-1.417,1.319,1.319,0,0,1,.374.04v.642a1.123,1.123,0,0,0-.321-.04c-1.269,0-1.883,1.056-1.883,2.513v3.368h1.309v.561h-3.1Z" transform="translate(-2151.572 -318.028)" fill="#fff"/><path d="M2220.393,340.562h1.068v-5.775h-1.068v-.561h1.789v1.083h.028a2.02,2.02,0,0,1,2.016-1.27c1.456,0,2.07.815,2.07,2.553v3.97h.989v.561h-2.858v-.561h1.149v-3.97c0-1.363-.521-1.992-1.576-1.992s-1.817.99-1.817,2.593v3.368h1.069v.561h-2.858Z" transform="translate(-2180.355 -318.028)" fill="#fff"/><path d="M1923.223,424.271h1.335v-8.448h-1.335v-.561h4.034c1.936,0,2.712.961,2.712,2.646a2.178,2.178,0,0,1-1.817,2.259v.027c.8.16,1.082.8,1.416,1.978l.588,2.1h.961v.561h-1.589l-.4-1.6c-.587-2.339-.921-2.82-2.23-2.82h-1.616v3.863h1.336v.561h-3.393Zm2.057-4.424h1.763a1.866,1.866,0,0,0,2.123-1.912c0-1.323-.6-2.112-2.244-2.112h-1.643Z" transform="translate(-1922.955 -388.373)" fill="#fff"/><path d="M2035.278,426h1.148v-5.775h-1.148v-.561h1.87V426h1.069v.561h-2.939Zm1.068-8.742h.881v.962h-.881Z" transform="translate(-2020.014 -390.097)" fill="#fff"/><path d="M2061.122,424.271h1.149v-8.448h-1.149v-.561h1.87v9.009h1.068v.561h-2.938Z" transform="translate(-2042.399 -388.373)" fill="#fff"/><path d="M2085.884,435.781h-.614v-.561h2.4v.561h-1.069l1.616,5.534h.027l1.643-6.1h.961l1.643,6.1h.027l1.616-5.534h-.962v-.561h2.3v.561h-.615L2093,442.117h-.962l-1.656-6.176h-.027l-1.656,6.176h-.961Z" transform="translate(-2063.315 -405.657)" fill="#fff"/><path d="M2167.133,436a2.168,2.168,0,0,1,2.391-2.179c1.87,0,2.4,1.016,2.4,2.313v4.21h.922v.562h-1.563v-1.4h-.027a2.139,2.139,0,0,1-2.271,1.59,1.933,1.933,0,0,1-2.1-2.059c0-1.43.855-2.246,2.858-2.246h1.456v-.508c0-1.35-.655-1.9-1.656-1.9a1.587,1.587,0,0,0-1.7,1.617Zm4.074,1.39c-.455-.013-.869-.04-1.269-.04-1.657,0-2.324.575-2.324,1.725a1.412,1.412,0,0,0,1.536,1.457c1.456,0,2.057-1.377,2.057-2.74Z" transform="translate(-2134.015 -404.445)" fill="#fff"/><path d="M2214.19,435.219h2.351v.561h-1l1.9,5.293h.027l1.9-5.293h-1v-.561h2.191v.561h-.468l-2.671,7.312c-.427,1.176-.921,1.43-1.576,1.43a2.18,2.18,0,0,1-.654-.08v-.561a1.581,1.581,0,0,0,.547.08c.535,0,.762-.2,1.363-1.845l-2.271-6.336h-.627Z" transform="translate(-2174.982 -405.657)" fill="#fff"/><path d="M2167.133,436a2.168,2.168,0,0,1,2.391-2.179c1.87,0,2.4,1.016,2.4,2.313v4.21h.922v.562h-1.563v-1.4h-.027a2.139,2.139,0,0,1-2.271,1.59,1.933,1.933,0,0,1-2.1-2.059c0-1.43.855-2.246,2.858-2.246h1.456v-.508c0-1.35-.655-1.9-1.656-1.9a1.587,1.587,0,0,0-1.7,1.617Zm4.074,1.39c-.455-.013-.869-.04-1.269-.04-1.657,0-2.324.575-2.324,1.725a1.412,1.412,0,0,0,1.536,1.457c1.456,0,2.057-1.377,2.057-2.74Z" transform="translate(-2158.083 -404.445)" fill="#fff"/></g><g transform="translate(98.069 6.987)"><path d="M1933.089,214.651h.641v3.356h-.641a2.684,2.684,0,0,0-2.778-2.875c-1.91,0-3.393,1.431-3.393,4.291,0,2.887,1.483,4.317,3.3,4.317a2.726,2.726,0,0,0,2.845-2.967v-.668h-1.576v-.561h3.407v.561h-1.108v4.117h-.722v-1.537h-.04a2.93,2.93,0,0,1-2.738,1.7c-2.818,0-4.167-2.287-4.167-4.946s1.349-4.946,4.261-4.946a2.691,2.691,0,0,1,2.685,1.6h.027Z" transform="translate(-1925.462 -214.491)" fill="#fff"/><path d="M1995.166,240.777h1.068V235h-1.068v-.561h1.789v1.23h.027a1.855,1.855,0,0,1,1.8-1.417,1.315,1.315,0,0,1,.374.04v.642a1.122,1.122,0,0,0-.32-.04c-1.269,0-1.884,1.056-1.884,2.513v3.368h1.309v.561h-3.1Z" transform="translate(-1985.27 -231.607)" fill="#fff"/><path d="M2030.91,238.023c.027,1.791.828,2.941,2.231,2.941a1.844,1.844,0,0,0,2.017-1.685h.641a2.484,2.484,0,0,1-2.657,2.246c-2.017,0-2.952-1.523-2.952-3.636s.935-3.636,2.952-3.636,2.792,1.831,2.792,3.769Zm4.3-.561c-.039-1.644-.788-2.647-2.163-2.647-1.216,0-2,1.082-2.137,2.647Z" transform="translate(-2015.606 -231.607)" fill="#fff"/><path d="M2080.322,236.43a2.168,2.168,0,0,1,2.391-2.179c1.87,0,2.4,1.016,2.4,2.313v4.21h.921v.562h-1.563v-1.4h-.027a2.139,2.139,0,0,1-2.271,1.59,1.933,1.933,0,0,1-2.1-2.059c0-1.43.855-2.245,2.858-2.245h1.456v-.509c0-1.35-.655-1.9-1.656-1.9a1.587,1.587,0,0,0-1.7,1.617Zm4.074,1.39c-.455-.013-.869-.039-1.269-.039-1.657,0-2.324.575-2.324,1.724a1.411,1.411,0,0,0,1.536,1.457c1.456,0,2.057-1.377,2.057-2.74Z" transform="translate(-2058.822 -231.605)" fill="#fff"/><path d="M2128.21,222.943l.721-.267v1.738h1.857v.561h-1.857V229.8c0,.841.334,1.135.682,1.135.548,0,.828-.468.828-1.323v-.147H2131v.254c0,1.056-.534,1.778-1.456,1.778s-1.336-.535-1.336-1.538v-4.985h-1.229v-.561h1.229Z" transform="translate(-2099.444 -221.58)" fill="#fff"/><path d="M1924.016,325.047,1922,316.038h-.775v-.561h2.992v.561h-1.5l1.789,8.207h.027l2.191-8.769h1.069l2.19,8.769h.027l1.79-8.207h-1.416v-.561h2.912v.561h-.774l-2.016,9.009h-1l-2.231-8.849h-.027l-2.23,8.849Z" transform="translate(-1921.224 -301.951)" fill="#fff"/><path d="M2012.363,337.809c.026,1.791.828,2.941,2.23,2.941a1.844,1.844,0,0,0,2.017-1.684h.641a2.484,2.484,0,0,1-2.658,2.246c-2.017,0-2.952-1.524-2.952-3.636s.935-3.636,2.952-3.636,2.792,1.831,2.792,3.769Zm4.3-.561c-.04-1.644-.788-2.647-2.163-2.647-1.216,0-2,1.082-2.137,2.647Z" transform="translate(-1999.54 -318.029)" fill="#fff"/><path d="M2061.936,338.7h.561c.053,1.377.815,2.045,1.843,2.045s1.683-.549,1.683-1.5c0-.828-.374-1.109-1.482-1.283l-.868-.134c-1.069-.188-1.67-.682-1.67-1.644a2.1,2.1,0,0,1,2.218-2.153,1.826,1.826,0,0,1,1.829,1h.027v-.816h.561v2.366h-.561v-.374a1.58,1.58,0,0,0-1.749-1.617,1.461,1.461,0,0,0-1.6,1.5c0,.722.534,1,1.215,1.11l1,.16c1.269.2,1.8.775,1.8,1.817,0,1.417-.921,2.126-2.377,2.126a1.792,1.792,0,0,1-1.857-1.11h-.013v.923h-.561Z" transform="translate(-2043.104 -318.026)" fill="#fff"/><path d="M2104.075,322.729l.721-.267V324.2h1.857v.562H2104.8v4.826c0,.841.334,1.136.682,1.136.548,0,.828-.468.828-1.324v-.147h.561v.254c0,1.056-.534,1.778-1.456,1.778s-1.336-.535-1.336-1.538v-4.985h-1.229V324.2h1.229Z" transform="translate(-2078.54 -308.001)" fill="#fff"/><path d="M2139.786,337.809c.027,1.791.828,2.941,2.23,2.941a1.844,1.844,0,0,0,2.017-1.684h.641a2.484,2.484,0,0,1-2.658,2.246c-2.016,0-2.952-1.524-2.952-3.636s.936-3.636,2.952-3.636,2.792,1.831,2.792,3.769Zm4.3-.561c-.04-1.644-.788-2.647-2.163-2.647-1.216,0-2,1.082-2.137,2.647Z" transform="translate(-2109.91 -318.029)" fill="#fff"/><path d="M2187.163,340.562h1.068v-5.775h-1.068v-.561h1.79v1.23h.027a1.855,1.855,0,0,1,1.8-1.417,1.319,1.319,0,0,1,.374.04v.642a1.123,1.123,0,0,0-.321-.04c-1.269,0-1.883,1.056-1.883,2.513v3.368h1.309v.561h-3.1Z" transform="translate(-2151.572 -318.028)" fill="#fff"/><path d="M2220.393,340.562h1.068v-5.775h-1.068v-.561h1.789v1.083h.028a2.02,2.02,0,0,1,2.016-1.27c1.456,0,2.07.815,2.07,2.553v3.97h.989v.561h-2.858v-.561h1.149v-3.97c0-1.363-.521-1.992-1.576-1.992s-1.817.99-1.817,2.593v3.368h1.069v.561h-2.858Z" transform="translate(-2180.355 -318.028)" fill="#fff"/><path d="M1923.223,424.271h1.335v-8.448h-1.335v-.561h4.034c1.936,0,2.712.961,2.712,2.646a2.178,2.178,0,0,1-1.817,2.259v.027c.8.16,1.082.8,1.416,1.978l.588,2.1h.961v.561h-1.589l-.4-1.6c-.587-2.339-.921-2.82-2.23-2.82h-1.616v3.863h1.336v.561h-3.393Zm2.057-4.424h1.763a1.866,1.866,0,0,0,2.123-1.912c0-1.323-.6-2.112-2.244-2.112h-1.643Z" transform="translate(-1922.955 -388.373)" fill="#fff"/><path d="M2035.278,426h1.148v-5.775h-1.148v-.561h1.87V426h1.069v.561h-2.939Zm1.068-8.742h.881v.962h-.881Z" transform="translate(-2020.014 -390.097)" fill="#fff"/><path d="M2061.122,424.271h1.149v-8.448h-1.149v-.561h1.87v9.009h1.068v.561h-2.938Z" transform="translate(-2042.399 -388.373)" fill="#fff"/><path d="M2085.884,435.781h-.614v-.561h2.4v.561h-1.069l1.616,5.534h.027l1.643-6.1h.961l1.643,6.1h.027l1.616-5.534h-.962v-.561h2.3v.561h-.615L2093,442.117h-.962l-1.656-6.176h-.027l-1.656,6.176h-.961Z" transform="translate(-2063.315 -405.657)" fill="#fff"/><path d="M2167.133,436a2.168,2.168,0,0,1,2.391-2.179c1.87,0,2.4,1.016,2.4,2.313v4.21h.922v.562h-1.563v-1.4h-.027a2.139,2.139,0,0,1-2.271,1.59,1.933,1.933,0,0,1-2.1-2.059c0-1.43.855-2.246,2.858-2.246h1.456v-.508c0-1.35-.655-1.9-1.656-1.9a1.587,1.587,0,0,0-1.7,1.617Zm4.074,1.39c-.455-.013-.869-.04-1.269-.04-1.657,0-2.324.575-2.324,1.725a1.412,1.412,0,0,0,1.536,1.457c1.456,0,2.057-1.377,2.057-2.74Z" transform="translate(-2134.015 -404.445)" fill="#fff"/><path d="M2214.19,435.219h2.351v.561h-1l1.9,5.293h.027l1.9-5.293h-1v-.561h2.191v.561h-.468l-2.671,7.312c-.427,1.176-.921,1.43-1.576,1.43a2.18,2.18,0,0,1-.654-.08v-.561a1.581,1.581,0,0,0,.547.08c.535,0,.762-.2,1.363-1.845l-2.271-6.336h-.627Z" transform="translate(-2174.982 -405.657)" fill="#fff"/><path d="M2167.133,436a2.168,2.168,0,0,1,2.391-2.179c1.87,0,2.4,1.016,2.4,2.313v4.21h.922v.562h-1.563v-1.4h-.027a2.139,2.139,0,0,1-2.271,1.59,1.933,1.933,0,0,1-2.1-2.059c0-1.43.855-2.246,2.858-2.246h1.456v-.508c0-1.35-.655-1.9-1.656-1.9a1.587,1.587,0,0,0-1.7,1.617Zm4.074,1.39c-.455-.013-.869-.04-1.269-.04-1.657,0-2.324.575-2.324,1.725a1.412,1.412,0,0,0,1.536,1.457c1.456,0,2.057-1.377,2.057-2.74Z" transform="translate(-2158.083 -404.445)" fill="#fff"/></g><path d="M1657.454,293.951a6.8,6.8,0,0,0-6.8-6.806h-10.307v19.117h4.53v-5.5h5.053l2.566,5.5h4.96l-3.082-6.613a6.8,6.8,0,0,0,3.082-5.7m-12.58-2.274h5.776a2.275,2.275,0,0,1,.053,4.55h-5.828Z" transform="translate(-1579.866 -270.426)" fill="#fff"/><path d="M1348.81,190.947l-9.55-28.664-9.548,28.663-7.162-21.5h-4.775l11.937,35.829,9.549-28.663,9.549,28.662,11.937-35.828h-4.775Z" transform="translate(-1300.466 -162.283)" fill="#fff"/><path d="M1203.847,290.544h-5.261v4.532h3.7v1.967a5.625,5.625,0,1,1,0-8.467l1.958-4.2a10.158,10.158,0,1,0,2.573,14.382v-8.214Z" transform="translate(-1188.436 -266.536)" fill="#fff"/><rect width="0.726" height="52.729" transform="translate(87.782 0.271)" fill="#fff" stroke="#fff" stroke-width="0.5"/></g></g></svg>