<svg xmlns="http://www.w3.org/2000/svg" xmlns:xlink="http://www.w3.org/1999/xlink" width="300" height="250" viewBox="0 0 300 250"><defs><clipPath id="b"><rect width="300" height="250"/></clipPath></defs><g id="a" clip-path="url(#b)"><rect width="300" height="250" fill="rgba(255,255,255,0)"/><rect width="300" height="70" transform="translate(0 180)" fill="#0b2d27"/><g transform="translate(94 195)"><g transform="translate(76.426 5.405)"><path d="M1931.55,214.615h.5v2.6h-.5a2.084,2.084,0,0,0-2.165-2.224c-1.488,0-2.644,1.107-2.644,3.32,0,2.233,1.156,3.34,2.571,3.34a2.116,2.116,0,0,0,2.217-2.3v-.517H1930.3V218.4h2.655v.434h-.864v3.185h-.562V220.83h-.031a2.284,2.284,0,0,1-2.134,1.313c-2.2,0-3.248-1.769-3.248-3.826s1.051-3.826,3.32-3.826a2.1,2.1,0,0,1,2.092,1.241h.021Z" transform="translate(-1925.607 -214.491)" fill="#fff"/><path d="M1995.166,239.3H1996v-4.467h-.833V234.4h1.394v.952h.021a1.444,1.444,0,0,1,1.405-1.1,1.032,1.032,0,0,1,.291.031v.5a.881.881,0,0,0-.25-.031c-.989,0-1.468.817-1.468,1.944V239.3h1.021v.434h-2.415Z" transform="translate(-1987.454 -232.206)" fill="#fff"/><path d="M2030.751,237.17c.021,1.385.645,2.275,1.738,2.275a1.434,1.434,0,0,0,1.572-1.3h.5a1.931,1.931,0,0,1-2.071,1.737c-1.572,0-2.3-1.179-2.3-2.812s.729-2.812,2.3-2.812,2.176,1.417,2.176,2.916Zm3.352-.434c-.031-1.272-.614-2.047-1.686-2.047-.948,0-1.562.837-1.666,2.047Z" transform="translate(-2018.824 -232.206)" fill="#fff"/><path d="M2080.269,235.937a1.685,1.685,0,0,1,1.863-1.686c1.458,0,1.874.786,1.874,1.789V239.3h.718v.435h-1.218v-1.085h-.021a1.667,1.667,0,0,1-1.77,1.23,1.5,1.5,0,0,1-1.634-1.593c0-1.106.666-1.737,2.228-1.737h1.135v-.393c0-1.044-.51-1.468-1.291-1.468a1.232,1.232,0,0,0-1.322,1.251Zm3.175,1.075c-.354-.01-.677-.03-.989-.03-1.291,0-1.811.444-1.811,1.334a1.1,1.1,0,0,0,1.2,1.127c1.135,0,1.6-1.065,1.6-2.119Z" transform="translate(-2063.514 -232.204)" fill="#fff"/><path d="M2127.938,222.883l.562-.207v1.344h1.447v.434H2128.5v3.733c0,.651.261.878.531.878.427,0,.645-.362.645-1.024v-.114h.437v.2c0,.817-.416,1.375-1.134,1.375s-1.041-.413-1.041-1.189v-3.857h-.958v-.434h.958Z" transform="translate(-2105.521 -221.828)" fill="#fff"/><path d="M1923.4,322.88l-1.571-6.969h-.6v-.434h2.332v.434h-1.166l1.395,6.349h.021l1.707-6.783h.833l1.707,6.783h.021l1.395-6.349h-1.1v-.434h2.269v.434h-.6l-1.572,6.969h-.781l-1.738-6.845h-.021l-1.738,6.845Z" transform="translate(-1921.224 -305.013)" fill="#fff"/><path d="M2012.2,336.956c.02,1.385.645,2.275,1.738,2.275a1.434,1.434,0,0,0,1.572-1.3h.5a1.932,1.932,0,0,1-2.072,1.737c-1.572,0-2.3-1.179-2.3-2.813s.729-2.812,2.3-2.812,2.176,1.417,2.176,2.916Zm3.352-.434c-.031-1.272-.614-2.047-1.686-2.047-.948,0-1.562.837-1.666,2.047Z" transform="translate(-2002.211 -321.654)" fill="#fff"/><path d="M2061.936,337.646h.437c.042,1.065.635,1.582,1.436,1.582s1.312-.424,1.312-1.158c0-.641-.291-.858-1.155-.992l-.676-.1c-.833-.145-1.3-.527-1.3-1.272a1.63,1.63,0,0,1,1.728-1.665,1.425,1.425,0,0,1,1.426.776h.021v-.631h.437v1.83h-.437v-.289a1.227,1.227,0,0,0-1.363-1.251,1.135,1.135,0,0,0-1.249,1.158c0,.558.416.775.947.859l.781.124c.989.155,1.4.6,1.4,1.406,0,1.1-.718,1.644-1.853,1.644a1.4,1.4,0,0,1-1.447-.859h-.01v.714h-.437Z" transform="translate(-2047.26 -321.651)" fill="#fff"/><path d="M2103.8,322.669l.562-.207v1.344h1.447v.435h-1.447v3.733c0,.651.261.879.531.879.427,0,.645-.362.645-1.024v-.114h.437v.2c0,.817-.416,1.375-1.134,1.375s-1.042-.414-1.042-1.19v-3.857h-.957v-.435h.957Z" transform="translate(-2083.904 -311.276)" fill="#fff"/><path d="M2139.626,336.956c.021,1.385.645,2.275,1.738,2.275a1.435,1.435,0,0,0,1.572-1.3h.5a1.932,1.932,0,0,1-2.072,1.737c-1.572,0-2.3-1.179-2.3-2.813s.729-2.812,2.3-2.812,2.176,1.417,2.176,2.916Zm3.352-.434c-.031-1.272-.614-2.047-1.686-2.047-.948,0-1.562.837-1.666,2.047Z" transform="translate(-2116.344 -321.654)" fill="#fff"/><path d="M2187.163,339.085H2188v-4.467h-.833v-.434h1.395v.952h.021a1.444,1.444,0,0,1,1.405-1.1,1.035,1.035,0,0,1,.291.031v.5a.882.882,0,0,0-.25-.031c-.989,0-1.468.817-1.468,1.944v2.606h1.021v.434h-2.415Z" transform="translate(-2159.427 -321.653)" fill="#fff"/><path d="M2220.393,339.085h.833v-4.467h-.833v-.434h1.395v.838h.021a1.575,1.575,0,0,1,1.571-.983c1.134,0,1.613.631,1.613,1.975v3.071h.771v.434h-2.228v-.434h.9v-3.071c0-1.054-.406-1.541-1.228-1.541s-1.416.766-1.416,2.006v2.606h.833v.434h-2.228Z" transform="translate(-2189.191 -321.653)" fill="#fff"/><path d="M1923.223,422.231h1.041V415.7h-1.041v-.434h3.144c1.509,0,2.113.744,2.113,2.047a1.688,1.688,0,0,1-1.416,1.748v.021c.625.124.843.62,1.1,1.53l.458,1.624h.749v.434h-1.239l-.312-1.241c-.458-1.81-.718-2.182-1.738-2.182h-1.26v2.988h1.041v.434h-2.644Zm1.6-3.422h1.374a1.449,1.449,0,0,0,1.655-1.479c0-1.024-.468-1.634-1.748-1.634h-1.281Z" transform="translate(-1923.014 -394.461)" fill="#fff"/><path d="M2035.278,424.016h.9v-4.467h-.9v-.434h1.457v4.9h.833v.434h-2.29Zm.833-6.763h.687V418h-.687Z" transform="translate(-2023.382 -396.246)" fill="#fff"/><path d="M2061.122,422.231h.9V415.7h-.9v-.434h1.458v6.969h.833v.434h-2.29Z" transform="translate(-2046.531 -394.461)" fill="#fff"/><path d="M2085.748,435.654h-.479v-.434h1.874v.434h-.833l1.259,4.281h.021l1.281-4.715h.749l1.28,4.715h.021l1.26-4.281h-.75v-.434h1.791v.434h-.479l-1.447,4.9h-.75l-1.29-4.777h-.021l-1.291,4.777h-.749Z" transform="translate(-2068.16 -412.351)" fill="#fff"/><path d="M2167.08,435.506a1.685,1.685,0,0,1,1.863-1.686c1.458,0,1.874.786,1.874,1.789v3.257h.718v.435h-1.218v-1.085h-.021a1.667,1.667,0,0,1-1.77,1.23,1.5,1.5,0,0,1-1.634-1.593c0-1.106.666-1.737,2.228-1.737h1.135v-.393c0-1.044-.51-1.468-1.291-1.468a1.232,1.232,0,0,0-1.322,1.251Zm3.175,1.075c-.354-.01-.677-.031-.989-.031-1.291,0-1.811.445-1.811,1.334a1.1,1.1,0,0,0,1.2,1.127c1.135,0,1.6-1.065,1.6-2.12Z" transform="translate(-2141.271 -411.096)" fill="#fff"/><path d="M2214.19,435.219h1.832v.434h-.781l1.478,4.095h.021l1.478-4.095h-.781v-.434h1.708v.434h-.365l-2.082,5.657c-.333.91-.718,1.106-1.229,1.106a1.71,1.71,0,0,1-.51-.062v-.434a1.239,1.239,0,0,0,.427.062c.417,0,.594-.155,1.062-1.427l-1.77-4.9h-.489Z" transform="translate(-2183.635 -412.35)" fill="#fff"/><path d="M2167.08,435.506a1.685,1.685,0,0,1,1.863-1.686c1.458,0,1.874.786,1.874,1.789v3.257h.718v.435h-1.218v-1.085h-.021a1.667,1.667,0,0,1-1.77,1.23,1.5,1.5,0,0,1-1.634-1.593c0-1.106.666-1.737,2.228-1.737h1.135v-.393c0-1.044-.51-1.468-1.291-1.468a1.232,1.232,0,0,0-1.322,1.251Zm3.175,1.075c-.354-.01-.677-.031-.989-.031-1.291,0-1.811.445-1.811,1.334a1.1,1.1,0,0,0,1.2,1.127c1.135,0,1.6-1.065,1.6-2.12Z" transform="translate(-2160.027 -411.096)" fill="#fff"/></g><g transform="translate(76.426 5.405)"><path d="M1931.55,214.615h.5v2.6h-.5a2.084,2.084,0,0,0-2.165-2.224c-1.488,0-2.644,1.107-2.644,3.32,0,2.233,1.156,3.34,2.571,3.34a2.116,2.116,0,0,0,2.217-2.3v-.517H1930.3V218.4h2.655v.434h-.864v3.185h-.562V220.83h-.031a2.284,2.284,0,0,1-2.134,1.313c-2.2,0-3.248-1.769-3.248-3.826s1.051-3.826,3.32-3.826a2.1,2.1,0,0,1,2.092,1.241h.021Z" transform="translate(-1925.607 -214.491)" fill="#fff"/><path d="M1995.166,239.3H1996v-4.467h-.833V234.4h1.394v.952h.021a1.444,1.444,0,0,1,1.405-1.1,1.032,1.032,0,0,1,.291.031v.5a.881.881,0,0,0-.25-.031c-.989,0-1.468.817-1.468,1.944V239.3h1.021v.434h-2.415Z" transform="translate(-1987.454 -232.206)" fill="#fff"/><path d="M2030.751,237.17c.021,1.385.645,2.275,1.738,2.275a1.434,1.434,0,0,0,1.572-1.3h.5a1.931,1.931,0,0,1-2.071,1.737c-1.572,0-2.3-1.179-2.3-2.812s.729-2.812,2.3-2.812,2.176,1.417,2.176,2.916Zm3.352-.434c-.031-1.272-.614-2.047-1.686-2.047-.948,0-1.562.837-1.666,2.047Z" transform="translate(-2018.824 -232.206)" fill="#fff"/><path d="M2080.269,235.937a1.685,1.685,0,0,1,1.863-1.686c1.458,0,1.874.786,1.874,1.789V239.3h.718v.435h-1.218v-1.085h-.021a1.667,1.667,0,0,1-1.77,1.23,1.5,1.5,0,0,1-1.634-1.593c0-1.106.666-1.737,2.228-1.737h1.135v-.393c0-1.044-.51-1.468-1.291-1.468a1.232,1.232,0,0,0-1.322,1.251Zm3.175,1.075c-.354-.01-.677-.03-.989-.03-1.291,0-1.811.444-1.811,1.334a1.1,1.1,0,0,0,1.2,1.127c1.135,0,1.6-1.065,1.6-2.119Z" transform="translate(-2063.514 -232.204)" fill="#fff"/><path d="M2127.938,222.883l.562-.207v1.344h1.447v.434H2128.5v3.733c0,.651.261.878.531.878.427,0,.645-.362.645-1.024v-.114h.437v.2c0,.817-.416,1.375-1.134,1.375s-1.041-.413-1.041-1.189v-3.857h-.958v-.434h.958Z" transform="translate(-2105.521 -221.828)" fill="#fff"/><path d="M1923.4,322.88l-1.571-6.969h-.6v-.434h2.332v.434h-1.166l1.395,6.349h.021l1.707-6.783h.833l1.707,6.783h.021l1.395-6.349h-1.1v-.434h2.269v.434h-.6l-1.572,6.969h-.781l-1.738-6.845h-.021l-1.738,6.845Z" transform="translate(-1921.224 -305.013)" fill="#fff"/><path d="M2012.2,336.956c.02,1.385.645,2.275,1.738,2.275a1.434,1.434,0,0,0,1.572-1.3h.5a1.932,1.932,0,0,1-2.072,1.737c-1.572,0-2.3-1.179-2.3-2.813s.729-2.812,2.3-2.812,2.176,1.417,2.176,2.916Zm3.352-.434c-.031-1.272-.614-2.047-1.686-2.047-.948,0-1.562.837-1.666,2.047Z" transform="translate(-2002.211 -321.654)" fill="#fff"/><path d="M2061.936,337.646h.437c.042,1.065.635,1.582,1.436,1.582s1.312-.424,1.312-1.158c0-.641-.291-.858-1.155-.992l-.676-.1c-.833-.145-1.3-.527-1.3-1.272a1.63,1.63,0,0,1,1.728-1.665,1.425,1.425,0,0,1,1.426.776h.021v-.631h.437v1.83h-.437v-.289a1.227,1.227,0,0,0-1.363-1.251,1.135,1.135,0,0,0-1.249,1.158c0,.558.416.775.947.859l.781.124c.989.155,1.4.6,1.4,1.406,0,1.1-.718,1.644-1.853,1.644a1.4,1.4,0,0,1-1.447-.859h-.01v.714h-.437Z" transform="translate(-2047.26 -321.651)" fill="#fff"/><path d="M2103.8,322.669l.562-.207v1.344h1.447v.435h-1.447v3.733c0,.651.261.879.531.879.427,0,.645-.362.645-1.024v-.114h.437v.2c0,.817-.416,1.375-1.134,1.375s-1.042-.414-1.042-1.19v-3.857h-.957v-.435h.957Z" transform="translate(-2083.904 -311.276)" fill="#fff"/><path d="M2139.626,336.956c.021,1.385.645,2.275,1.738,2.275a1.435,1.435,0,0,0,1.572-1.3h.5a1.932,1.932,0,0,1-2.072,1.737c-1.572,0-2.3-1.179-2.3-2.813s.729-2.812,2.3-2.812,2.176,1.417,2.176,2.916Zm3.352-.434c-.031-1.272-.614-2.047-1.686-2.047-.948,0-1.562.837-1.666,2.047Z" transform="translate(-2116.344 -321.654)" fill="#fff"/><path d="M2187.163,339.085H2188v-4.467h-.833v-.434h1.395v.952h.021a1.444,1.444,0,0,1,1.405-1.1,1.035,1.035,0,0,1,.291.031v.5a.882.882,0,0,0-.25-.031c-.989,0-1.468.817-1.468,1.944v2.606h1.021v.434h-2.415Z" transform="translate(-2159.427 -321.653)" fill="#fff"/><path d="M2220.393,339.085h.833v-4.467h-.833v-.434h1.395v.838h.021a1.575,1.575,0,0,1,1.571-.983c1.134,0,1.613.631,1.613,1.975v3.071h.771v.434h-2.228v-.434h.9v-3.071c0-1.054-.406-1.541-1.228-1.541s-1.416.766-1.416,2.006v2.606h.833v.434h-2.228Z" transform="translate(-2189.191 -321.653)" fill="#fff"/><path d="M1923.223,422.231h1.041V415.7h-1.041v-.434h3.144c1.509,0,2.113.744,2.113,2.047a1.688,1.688,0,0,1-1.416,1.748v.021c.625.124.843.62,1.1,1.53l.458,1.624h.749v.434h-1.239l-.312-1.241c-.458-1.81-.718-2.182-1.738-2.182h-1.26v2.988h1.041v.434h-2.644Zm1.6-3.422h1.374a1.449,1.449,0,0,0,1.655-1.479c0-1.024-.468-1.634-1.748-1.634h-1.281Z" transform="translate(-1923.014 -394.461)" fill="#fff"/><path d="M2035.278,424.016h.9v-4.467h-.9v-.434h1.457v4.9h.833v.434h-2.29Zm.833-6.763h.687V418h-.687Z" transform="translate(-2023.382 -396.246)" fill="#fff"/><path d="M2061.122,422.231h.9V415.7h-.9v-.434h1.458v6.969h.833v.434h-2.29Z" transform="translate(-2046.531 -394.461)" fill="#fff"/><path d="M2085.748,435.654h-.479v-.434h1.874v.434h-.833l1.259,4.281h.021l1.281-4.715h.749l1.28,4.715h.021l1.26-4.281h-.75v-.434h1.791v.434h-.479l-1.447,4.9h-.75l-1.29-4.777h-.021l-1.291,4.777h-.749Z" transform="translate(-2068.16 -412.351)" fill="#fff"/><path d="M2167.08,435.506a1.685,1.685,0,0,1,1.863-1.686c1.458,0,1.874.786,1.874,1.789v3.257h.718v.435h-1.218v-1.085h-.021a1.667,1.667,0,0,1-1.77,1.23,1.5,1.5,0,0,1-1.634-1.593c0-1.106.666-1.737,2.228-1.737h1.135v-.393c0-1.044-.51-1.468-1.291-1.468a1.232,1.232,0,0,0-1.322,1.251Zm3.175,1.075c-.354-.01-.677-.031-.989-.031-1.291,0-1.811.445-1.811,1.334a1.1,1.1,0,0,0,1.2,1.127c1.135,0,1.6-1.065,1.6-2.12Z" transform="translate(-2141.271 -411.096)" fill="#fff"/><path d="M2214.19,435.219h1.832v.434h-.781l1.478,4.095h.021l1.478-4.095h-.781v-.434h1.708v.434h-.365l-2.082,5.657c-.333.91-.718,1.106-1.229,1.106a1.71,1.71,0,0,1-.51-.062v-.434a1.239,1.239,0,0,0,.427.062c.417,0,.594-.155,1.062-1.427l-1.77-4.9h-.489Z" transform="translate(-2183.635 -412.35)" fill="#fff"/><path d="M2167.08,435.506a1.685,1.685,0,0,1,1.863-1.686c1.458,0,1.874.786,1.874,1.789v3.257h.718v.435h-1.218v-1.085h-.021a1.667,1.667,0,0,1-1.77,1.23,1.5,1.5,0,0,1-1.634-1.593c0-1.106.666-1.737,2.228-1.737h1.135v-.393c0-1.044-.51-1.468-1.291-1.468a1.232,1.232,0,0,0-1.322,1.251Zm3.175,1.075c-.354-.01-.677-.031-.989-.031-1.291,0-1.811.445-1.811,1.334a1.1,1.1,0,0,0,1.2,1.127c1.135,0,1.6-1.065,1.6-2.12Z" transform="translate(-2160.027 -411.096)" fill="#fff"/></g><path d="M1653.678,292.41a5.283,5.283,0,0,0-5.3-5.265h-8.032v14.789h3.53v-4.258h3.938l2,4.258h3.866l-2.4-5.116a5.251,5.251,0,0,0,2.4-4.407m-9.8-1.759h4.5a1.76,1.76,0,0,1,.041,3.519h-4.542Z" transform="translate(-1593.213 -274.211)" fill="#fff"/><path d="M1341.961,184.457l-7.442-22.174-7.441,22.173-5.581-16.63h-3.721l9.3,27.716,7.442-22.173,7.441,22.173,9.3-27.716h-3.721Z" transform="translate(-1304.286 -162.283)" fill="#fff"/><path d="M1200.446,288.758h-4.1v3.506h2.883v1.522a4.351,4.351,0,1,1,0-6.55l1.526-3.25a7.853,7.853,0,1,0,2.006,11.126v-6.354Z" transform="translate(-1188.436 -270.185)" fill="#fff"/><rect width="0.566" height="40.79" transform="translate(68.409 0.21)" fill="#fff" stroke="#fff" stroke-width="0.5"/></g></g></svg>